<svg width="300" height="300" viewBox="0 0 300 300" fill="none" xmlns="http://www.w3.org/2000/svg">
<rect width="300" height="300" rx="16" fill="#FFB6C1"/>
<path d="M117 171.25C115.831 171.25 114.852 170.831 114.061 169.992C113.27 169.154 112.875 168.115 112.875 166.875V142.922C112.875 141.099 113.477 139.549 114.68 138.273C115.883 136.997 117.344 136.359 119.062 136.359H121.847V116.453C121.847 114.63 122.448 113.081 123.652 111.805C124.855 110.529 126.316 109.891 128.034 109.891H146.906V102.891C145.531 101.87 144.483 100.758 143.761 99.5547C143.039 98.3516 142.678 96.9115 142.678 95.2344C142.678 94.1406 142.867 93.1016 143.245 92.1172C143.623 91.1328 144.156 90.276 144.844 89.5469L150 83.75L155.156 89.5469C155.844 90.276 156.394 91.1328 156.806 92.1172C157.219 93.1016 157.425 94.1406 157.425 95.2344C157.425 96.9115 157.047 98.3516 156.291 99.5547C155.534 100.758 154.469 101.87 153.094 102.891V109.891H171.966C173.684 109.891 175.145 110.529 176.348 111.805C177.552 113.081 178.153 114.63 178.153 116.453V136.359H180.938C182.656 136.359 184.117 136.997 185.32 138.273C186.523 139.549 187.125 141.099 187.125 142.922V166.875C187.125 168.115 186.73 169.154 185.939 169.992C185.148 170.831 184.169 171.25 183 171.25H117ZM128.034 136.359H171.966V116.453H128.034V136.359ZM119.062 164.688H180.938V142.922H119.062V164.688Z" fill="white"/>
<path d="M26.6533 218C26.4933 218 26.4133 217.912 26.4133 217.736V202.544C26.4133 202.368 26.4933 202.28 26.6533 202.28H28.4533C28.6133 202.28 28.6933 202.368 28.6933 202.544V217.736C28.6933 217.912 28.6133 218 28.4533 218H26.6533ZM32.6243 218C32.4643 218 32.3843 217.912 32.3843 217.736V209.216C32.3843 208.768 32.3683 208.312 32.3363 207.848C32.3203 207.368 32.2803 206.936 32.2163 206.552C32.1843 206.36 32.2723 206.264 32.4803 206.264H34.0883C34.1683 206.264 34.2243 206.272 34.2563 206.288C34.3043 206.304 34.3363 206.352 34.3523 206.432C34.3843 206.672 34.4243 206.928 34.4723 207.2C34.5203 207.472 34.5523 207.744 34.5683 208.016C35.2563 207.328 35.9203 206.816 36.5603 206.48C37.2003 206.144 37.8963 205.976 38.6483 205.976C39.4643 205.976 40.1203 206.16 40.6163 206.528C41.1123 206.896 41.4643 207.44 41.6723 208.16C42.4083 207.408 43.1042 206.856 43.7603 206.504C44.4163 206.152 45.1283 205.976 45.8963 205.976C46.9843 205.976 47.8003 206.312 48.3443 206.984C48.9043 207.64 49.1843 208.624 49.1843 209.936V217.736C49.1843 217.912 49.0963 218 48.9203 218H47.1443C46.9843 218 46.9043 217.912 46.9043 217.736V210.176C46.9043 209.44 46.7683 208.888 46.4963 208.52C46.2403 208.152 45.8243 207.968 45.2483 207.968C44.7363 207.968 44.2243 208.128 43.7123 208.448C43.2003 208.752 42.6003 209.224 41.9123 209.864V217.736C41.9123 217.912 41.8323 218 41.6723 218H39.8963C39.7203 218 39.6323 217.912 39.6323 217.736V210.176C39.6323 209.44 39.4963 208.888 39.2243 208.52C38.9683 208.152 38.5523 207.968 37.9763 207.968C37.4803 207.968 36.9683 208.128 36.4403 208.448C35.9283 208.752 35.3363 209.224 34.6643 209.864V217.736C34.6643 217.912 34.5763 218 34.4003 218H32.6243ZM59.4508 218C59.3548 218 59.2828 217.968 59.2348 217.904C59.2028 217.84 59.1708 217.76 59.1388 217.664C59.1228 217.536 59.0828 217.264 59.0188 216.848C58.9708 216.432 58.9388 216.056 58.9228 215.72L58.8268 214.784V210.008C58.8268 209.24 58.6748 208.696 58.3708 208.376C58.0668 208.056 57.5308 207.896 56.7628 207.896C55.3868 207.896 54.7068 208.376 54.7228 209.336C54.7228 209.512 54.6428 209.6 54.4828 209.6H52.7308C52.5548 209.6 52.4588 209.448 52.4428 209.144C52.3628 208.184 52.7228 207.416 53.5228 206.84C54.3228 206.264 55.4268 205.976 56.8348 205.976C58.2908 205.976 59.3628 206.304 60.0508 206.96C60.7548 207.616 61.1068 208.624 61.1068 209.984V215.072C61.1068 215.616 61.1148 216.112 61.1308 216.56C61.1628 216.992 61.2028 217.376 61.2508 217.712C61.2828 217.904 61.2028 218 61.0108 218H59.4508ZM54.8428 218.288C53.9148 218.288 53.2028 218.008 52.7068 217.448C52.2108 216.872 51.9628 216.048 51.9628 214.976C51.9628 214.144 52.1228 213.472 52.4428 212.96C52.7788 212.432 53.3068 212.024 54.0268 211.736C54.7628 211.432 55.7388 211.232 56.9548 211.136L59.1868 210.944V212.552L56.9788 212.744C55.9388 212.84 55.2188 213.04 54.8188 213.344C54.4188 213.632 54.2188 214.12 54.2188 214.808C54.2188 215.32 54.3228 215.712 54.5308 215.984C54.7548 216.24 55.0828 216.368 55.5148 216.368C56.0268 216.368 56.5548 216.192 57.0988 215.84C57.6588 215.488 58.3788 214.856 59.2588 213.944L59.3068 215.768C58.7628 216.36 58.2508 216.84 57.7708 217.208C57.2908 217.576 56.8108 217.848 56.3308 218.024C55.8668 218.2 55.3708 218.288 54.8428 218.288ZM68.9325 222.728C67.0285 222.728 65.6605 222.472 64.8285 221.96C63.9965 221.464 63.5805 220.712 63.5805 219.704C63.5805 219.064 63.7325 218.496 64.0365 218C64.3405 217.52 64.8205 217.128 65.4765 216.824L67.2525 217.472C66.7885 217.616 66.4525 217.84 66.2445 218.144C66.0365 218.464 65.9325 218.832 65.9325 219.248C65.9325 219.856 66.1565 220.272 66.6045 220.496C67.0685 220.736 67.8765 220.856 69.0285 220.856C70.2605 220.856 71.1005 220.736 71.5485 220.496C72.0125 220.256 72.2445 219.816 72.2445 219.176C72.2445 218.744 72.1405 218.424 71.9325 218.216C71.7245 218.008 71.3805 217.896 70.9005 217.88L66.4845 217.616C65.9565 217.584 65.4845 217.392 65.0685 217.04C64.6685 216.688 64.4685 216.144 64.4685 215.408C64.4685 215.072 64.5165 214.768 64.6125 214.496C64.7245 214.224 64.8925 213.968 65.1165 213.728C65.3565 213.488 65.6685 213.224 66.0525 212.936L67.4685 213.728C67.1325 213.856 66.8845 214.024 66.7245 214.232C66.5805 214.424 66.5085 214.648 66.5085 214.904C66.5085 215.176 66.5965 215.368 66.7725 215.48C66.9485 215.592 67.2285 215.664 67.6125 215.696L71.5725 215.936C72.5645 216 73.3005 216.304 73.7805 216.848C74.2605 217.392 74.5005 218.192 74.5005 219.248C74.5005 220.48 74.0525 221.368 73.1565 221.912C72.2765 222.456 70.8685 222.728 68.9325 222.728ZM69.1245 214.208C67.6045 214.208 66.4765 213.872 65.7405 213.2C65.0045 212.512 64.6365 211.472 64.6365 210.08C64.6365 208.688 65.0045 207.656 65.7405 206.984C66.4925 206.312 67.6445 205.976 69.1965 205.976C70.7005 205.976 71.8125 206.32 72.5325 207.008C73.2525 207.68 73.6125 208.712 73.6125 210.104C73.6125 211.496 73.2525 212.528 72.5325 213.2C71.8125 213.872 70.6765 214.208 69.1245 214.208ZM69.1245 212.288C69.9725 212.288 70.5565 212.128 70.8765 211.808C71.2125 211.472 71.3805 210.904 71.3805 210.104C71.3805 209.288 71.2125 208.712 70.8765 208.376C70.5405 208.04 69.9565 207.872 69.1245 207.872C68.2925 207.872 67.7085 208.04 67.3725 208.376C67.0525 208.712 66.8925 209.288 66.8925 210.104C66.8925 210.904 67.0525 211.472 67.3725 211.808C67.7085 212.128 68.2925 212.288 69.1245 212.288ZM72.1245 207.32L70.3485 206.576C70.4125 205.84 70.4845 205.224 70.5645 204.728C70.6445 204.216 70.7245 203.784 70.8045 203.432C70.8525 203.24 70.9485 203.144 71.0925 203.144H72.7245C72.9165 203.144 72.9885 203.232 72.9405 203.408C72.7805 203.92 72.6365 204.464 72.5085 205.04C72.3965 205.6 72.2685 206.36 72.1245 207.32ZM81.5229 218.288C79.9229 218.288 78.7069 217.92 77.8749 217.184C77.0429 216.448 76.6269 215.368 76.6269 213.944V210.68C76.6269 209.144 77.0349 207.976 77.8509 207.176C78.6829 206.376 79.8989 205.976 81.4989 205.976C83.0989 205.976 84.3069 206.368 85.1229 207.152C85.9549 207.936 86.3709 209.072 86.3709 210.56V212.432C86.3709 212.592 86.2909 212.672 86.1309 212.672H78.8829V213.44C78.8829 214.448 79.0989 215.184 79.5309 215.648C79.9629 216.112 80.6589 216.344 81.6189 216.344C82.3389 216.344 82.8909 216.232 83.2749 216.008C83.6749 215.768 83.8749 215.416 83.8749 214.952C83.8749 214.776 83.9629 214.688 84.1389 214.688H85.9149C86.0429 214.688 86.1229 214.76 86.1549 214.904C86.2189 215.976 85.8349 216.808 85.0029 217.4C84.1869 217.992 83.0269 218.288 81.5229 218.288ZM78.8829 210.872H84.1149V210.752C84.1149 209.776 83.8989 209.064 83.4669 208.616C83.0349 208.152 82.3949 207.92 81.5469 207.92C80.6509 207.92 79.9789 208.16 79.5309 208.64C79.0989 209.104 78.8829 209.816 78.8829 210.776V210.872ZM89.718 218C89.558 218 89.478 217.912 89.478 217.736V209.216C89.478 208.768 89.462 208.312 89.43 207.848C89.414 207.368 89.374 206.936 89.31 206.552C89.278 206.36 89.366 206.264 89.574 206.264H91.182C91.262 206.264 91.318 206.272 91.35 206.288C91.398 206.304 91.43 206.352 91.446 206.432C91.478 206.672 91.518 206.928 91.566 207.2C91.614 207.472 91.646 207.744 91.662 208.016C92.35 207.328 93.014 206.816 93.654 206.48C94.294 206.144 94.99 205.976 95.742 205.976C96.558 205.976 97.214 206.16 97.71 206.528C98.206 206.896 98.558 207.44 98.766 208.16C99.502 207.408 100.198 206.856 100.854 206.504C101.51 206.152 102.222 205.976 102.99 205.976C104.078 205.976 104.894 206.312 105.438 206.984C105.998 207.64 106.278 208.624 106.278 209.936V217.736C106.278 217.912 106.19 218 106.014 218H104.238C104.078 218 103.998 217.912 103.998 217.736V210.176C103.998 209.44 103.862 208.888 103.59 208.52C103.334 208.152 102.918 207.968 102.342 207.968C101.83 207.968 101.318 208.128 100.806 208.448C100.294 208.752 99.694 209.224 99.006 209.864V217.736C99.006 217.912 98.926 218 98.766 218H96.99C96.814 218 96.726 217.912 96.726 217.736V210.176C96.726 209.44 96.59 208.888 96.318 208.52C96.062 208.152 95.646 207.968 95.07 207.968C94.574 207.968 94.062 208.128 93.534 208.448C93.022 208.752 92.43 209.224 91.758 209.864V217.736C91.758 217.912 91.67 218 91.494 218H89.718ZM122.593 218C122.417 218 122.329 217.912 122.329 217.736V210.176C122.329 209.408 122.169 208.848 121.849 208.496C121.545 208.144 121.081 207.968 120.457 207.968C119.849 207.968 119.249 208.152 118.657 208.52C118.081 208.872 117.369 209.464 116.521 210.296V208.376C117.033 207.816 117.529 207.36 118.009 207.008C118.505 206.656 119.001 206.4 119.497 206.24C119.993 206.064 120.521 205.976 121.081 205.976C122.233 205.976 123.105 206.312 123.697 206.984C124.305 207.64 124.609 208.632 124.609 209.96V217.736C124.609 217.912 124.529 218 124.369 218H122.593ZM114.937 218C114.777 218 114.697 217.912 114.697 217.736V209.216C114.697 208.784 114.673 208.312 114.625 207.8C114.593 207.288 114.561 206.88 114.529 206.576C114.497 206.368 114.577 206.264 114.769 206.264H116.401C116.481 206.264 116.545 206.28 116.593 206.312C116.641 206.344 116.673 206.408 116.689 206.504C116.721 206.632 116.753 206.832 116.785 207.104C116.817 207.36 116.849 207.632 116.881 207.92C116.913 208.208 116.929 208.456 116.929 208.664L116.977 209.408V217.736C116.977 217.912 116.889 218 116.713 218H114.937ZM134.896 218C134.8 218 134.728 217.968 134.68 217.904C134.648 217.84 134.616 217.76 134.584 217.664C134.568 217.536 134.528 217.264 134.464 216.848C134.416 216.432 134.384 216.056 134.368 215.72L134.272 214.784V210.008C134.272 209.24 134.12 208.696 133.816 208.376C133.512 208.056 132.976 207.896 132.208 207.896C130.832 207.896 130.152 208.376 130.168 209.336C130.168 209.512 130.088 209.6 129.928 209.6H128.176C128 209.6 127.904 209.448 127.888 209.144C127.808 208.184 128.168 207.416 128.968 206.84C129.768 206.264 130.872 205.976 132.28 205.976C133.736 205.976 134.808 206.304 135.496 206.96C136.2 207.616 136.552 208.624 136.552 209.984V215.072C136.552 215.616 136.56 216.112 136.576 216.56C136.608 216.992 136.648 217.376 136.696 217.712C136.728 217.904 136.648 218 136.456 218H134.896ZM130.288 218.288C129.36 218.288 128.648 218.008 128.152 217.448C127.656 216.872 127.408 216.048 127.408 214.976C127.408 214.144 127.568 213.472 127.888 212.96C128.224 212.432 128.752 212.024 129.472 211.736C130.208 211.432 131.184 211.232 132.4 211.136L134.632 210.944V212.552L132.424 212.744C131.384 212.84 130.664 213.04 130.264 213.344C129.864 213.632 129.664 214.12 129.664 214.808C129.664 215.32 129.768 215.712 129.976 215.984C130.2 216.24 130.528 216.368 130.96 216.368C131.472 216.368 132 216.192 132.544 215.84C133.104 215.488 133.824 214.856 134.704 213.944L134.752 215.768C134.208 216.36 133.696 216.84 133.216 217.208C132.736 217.576 132.256 217.848 131.776 218.024C131.312 218.2 130.816 218.288 130.288 218.288ZM133.408 204.416C133.088 204.416 132.792 204.36 132.52 204.248C132.264 204.136 132.008 204.032 131.752 203.936C131.512 203.84 131.24 203.792 130.936 203.792C130.664 203.792 130.376 203.848 130.072 203.96C129.768 204.072 129.528 204.168 129.352 204.248C129.144 204.344 129.04 204.296 129.04 204.104V202.88C129.04 202.736 129.088 202.632 129.184 202.568C129.344 202.44 129.576 202.304 129.88 202.16C130.2 202.016 130.568 201.944 130.984 201.944C131.384 201.944 131.712 202 131.968 202.112C132.24 202.208 132.488 202.312 132.712 202.424C132.936 202.52 133.184 202.568 133.456 202.568C133.728 202.568 134.016 202.512 134.32 202.4C134.624 202.288 134.864 202.192 135.04 202.112C135.248 202.016 135.352 202.064 135.352 202.256V203.456C135.352 203.536 135.336 203.608 135.304 203.672C135.288 203.72 135.256 203.76 135.208 203.792C135.048 203.904 134.808 204.04 134.488 204.2C134.184 204.344 133.824 204.416 133.408 204.416ZM144.714 218.288C143.082 218.288 141.834 217.896 140.97 217.112C140.106 216.312 139.674 215.104 139.674 213.488V210.776C139.674 209.16 140.098 207.96 140.946 207.176C141.81 206.376 143.066 205.976 144.714 205.976C146.362 205.976 147.618 206.376 148.482 207.176C149.346 207.96 149.778 209.16 149.778 210.776V213.488C149.778 215.104 149.346 216.312 148.482 217.112C147.634 217.896 146.378 218.288 144.714 218.288ZM144.714 216.296C145.69 216.296 146.394 216.048 146.826 215.552C147.274 215.056 147.498 214.296 147.498 213.272V210.968C147.498 209.96 147.274 209.208 146.826 208.712C146.394 208.216 145.69 207.968 144.714 207.968C143.738 207.968 143.034 208.216 142.602 208.712C142.17 209.208 141.954 209.96 141.954 210.968V213.272C141.954 214.296 142.17 215.056 142.602 215.552C143.034 216.048 143.738 216.296 144.714 216.296ZM162.476 218.288C160.876 218.288 159.66 217.92 158.828 217.184C157.996 216.448 157.58 215.368 157.58 213.944V210.68C157.58 209.144 157.988 207.976 158.804 207.176C159.636 206.376 160.852 205.976 162.452 205.976C164.052 205.976 165.26 206.368 166.076 207.152C166.908 207.936 167.324 209.072 167.324 210.56V212.432C167.324 212.592 167.244 212.672 167.084 212.672H159.836V213.44C159.836 214.448 160.052 215.184 160.484 215.648C160.916 216.112 161.612 216.344 162.572 216.344C163.292 216.344 163.844 216.232 164.228 216.008C164.628 215.768 164.828 215.416 164.828 214.952C164.828 214.776 164.916 214.688 165.092 214.688H166.868C166.996 214.688 167.076 214.76 167.108 214.904C167.172 215.976 166.788 216.808 165.956 217.4C165.14 217.992 163.98 218.288 162.476 218.288ZM159.836 210.872H165.068V210.752C165.068 209.776 164.852 209.064 164.42 208.616C163.988 208.152 163.348 207.92 162.5 207.92C161.604 207.92 160.932 208.16 160.484 208.64C160.052 209.104 159.836 209.816 159.836 210.776V210.872ZM178.327 218C178.151 218 178.063 217.912 178.063 217.736V210.176C178.063 209.408 177.903 208.848 177.583 208.496C177.279 208.144 176.815 207.968 176.191 207.968C175.583 207.968 174.983 208.152 174.391 208.52C173.815 208.872 173.103 209.464 172.255 210.296V208.376C172.767 207.816 173.263 207.36 173.743 207.008C174.239 206.656 174.735 206.4 175.231 206.24C175.727 206.064 176.255 205.976 176.815 205.976C177.967 205.976 178.839 206.312 179.431 206.984C180.039 207.64 180.343 208.632 180.343 209.96V217.736C180.343 217.912 180.263 218 180.103 218H178.327ZM170.671 218C170.511 218 170.431 217.912 170.431 217.736V209.216C170.431 208.784 170.407 208.312 170.359 207.8C170.327 207.288 170.295 206.88 170.263 206.576C170.231 206.368 170.311 206.264 170.503 206.264H172.135C172.215 206.264 172.279 206.28 172.327 206.312C172.375 206.344 172.407 206.408 172.423 206.504C172.455 206.632 172.487 206.832 172.519 207.104C172.551 207.36 172.583 207.632 172.615 207.92C172.647 208.208 172.663 208.456 172.663 208.664L172.711 209.408V217.736C172.711 217.912 172.623 218 172.447 218H170.671ZM188.471 218.288C186.839 218.288 185.599 217.888 184.751 217.088C183.903 216.272 183.479 215.104 183.479 213.584V210.68C183.479 209.16 183.911 208 184.775 207.2C185.639 206.384 186.887 205.976 188.519 205.976C189.495 205.976 190.327 206.128 191.015 206.432C191.719 206.736 192.255 207.152 192.623 207.68C192.991 208.208 193.175 208.824 193.175 209.528C193.175 209.88 193.087 210.056 192.911 210.056H191.159C191.095 210.056 191.039 210.024 190.991 209.96C190.943 209.896 190.919 209.808 190.919 209.696C190.919 209.136 190.703 208.712 190.271 208.424C189.839 208.12 189.255 207.968 188.519 207.968C187.591 207.968 186.895 208.208 186.431 208.688C185.983 209.152 185.759 209.888 185.759 210.896V213.368C185.759 214.36 185.983 215.096 186.431 215.576C186.895 216.056 187.583 216.296 188.495 216.296C189.247 216.296 189.831 216.136 190.247 215.816C190.679 215.48 190.895 215.072 190.895 214.592C190.895 214.336 190.975 214.208 191.135 214.208H192.887C193.063 214.208 193.151 214.288 193.151 214.448C193.151 215.616 192.751 216.552 191.951 217.256C191.151 217.944 189.991 218.288 188.471 218.288ZM200.894 218.288C199.262 218.288 198.014 217.896 197.15 217.112C196.286 216.312 195.854 215.104 195.854 213.488V210.776C195.854 209.16 196.278 207.96 197.126 207.176C197.99 206.376 199.246 205.976 200.894 205.976C202.542 205.976 203.798 206.376 204.662 207.176C205.526 207.96 205.958 209.16 205.958 210.776V213.488C205.958 215.104 205.526 216.312 204.662 217.112C203.814 217.896 202.558 218.288 200.894 218.288ZM200.894 216.296C201.87 216.296 202.574 216.048 203.006 215.552C203.454 215.056 203.678 214.296 203.678 213.272V210.968C203.678 209.96 203.454 209.208 203.006 208.712C202.574 208.216 201.87 207.968 200.894 207.968C199.918 207.968 199.214 208.216 198.782 208.712C198.35 209.208 198.134 209.96 198.134 210.968V213.272C198.134 214.296 198.35 215.056 198.782 215.552C199.214 216.048 199.918 216.296 200.894 216.296ZM216.976 218C216.8 218 216.712 217.912 216.712 217.736V210.176C216.712 209.408 216.552 208.848 216.232 208.496C215.928 208.144 215.464 207.968 214.84 207.968C214.232 207.968 213.632 208.152 213.04 208.52C212.464 208.872 211.752 209.464 210.904 210.296V208.376C211.416 207.816 211.912 207.36 212.392 207.008C212.888 206.656 213.384 206.4 213.88 206.24C214.376 206.064 214.904 205.976 215.464 205.976C216.616 205.976 217.488 206.312 218.08 206.984C218.688 207.64 218.992 208.632 218.992 209.96V217.736C218.992 217.912 218.912 218 218.752 218H216.976ZM209.32 218C209.16 218 209.08 217.912 209.08 217.736V209.216C209.08 208.784 209.056 208.312 209.008 207.8C208.976 207.288 208.944 206.88 208.912 206.576C208.88 206.368 208.96 206.264 209.152 206.264H210.784C210.864 206.264 210.928 206.28 210.976 206.312C211.024 206.344 211.056 206.408 211.072 206.504C211.104 206.632 211.136 206.832 211.168 207.104C211.2 207.36 211.232 207.632 211.264 207.92C211.296 208.208 211.312 208.456 211.312 208.664L211.36 209.408V217.736C211.36 217.912 211.272 218 211.096 218H209.32ZM226.922 218.288C226.074 218.288 225.394 218.152 224.882 217.88C224.37 217.592 224.002 217.16 223.778 216.584C223.554 216.008 223.442 215.288 223.442 214.424V208.208H221.618C221.442 208.208 221.354 208.12 221.354 207.944V206.504C221.354 206.344 221.442 206.264 221.618 206.264H223.49L223.778 203.384C223.794 203.208 223.89 203.12 224.066 203.12H225.458C225.618 203.12 225.698 203.208 225.698 203.384L225.722 206.264H229.202C229.378 206.264 229.466 206.344 229.466 206.504V207.944C229.466 208.12 229.378 208.208 229.202 208.208H225.722V214.328C225.722 215.048 225.85 215.56 226.106 215.864C226.362 216.168 226.794 216.32 227.402 216.32C227.722 216.32 228.034 216.288 228.338 216.224C228.658 216.144 228.938 216.048 229.178 215.936C229.274 215.904 229.346 215.904 229.394 215.936C229.458 215.968 229.49 216.032 229.49 216.128V217.592C229.49 217.736 229.418 217.832 229.274 217.88C228.986 217.992 228.642 218.088 228.242 218.168C227.858 218.248 227.418 218.288 226.922 218.288ZM232.195 218C232.035 218 231.955 217.912 231.955 217.736V209.144C231.955 208.68 231.939 208.24 231.907 207.824C231.891 207.392 231.851 206.96 231.787 206.528C231.755 206.352 231.835 206.264 232.027 206.264H233.659C233.739 206.264 233.803 206.28 233.851 206.312C233.899 206.344 233.931 206.4 233.947 206.48C234.011 206.784 234.059 207.128 234.091 207.512C234.123 207.896 234.139 208.224 234.139 208.496L234.235 209.816V217.736C234.235 217.912 234.147 218 233.971 218H232.195ZM233.971 210.632L233.875 208.52C234.211 208.024 234.595 207.592 235.027 207.224C235.475 206.84 235.923 206.536 236.371 206.312C236.819 206.088 237.235 205.976 237.619 205.976C237.907 205.976 238.123 206 238.267 206.048C238.347 206.064 238.395 206.096 238.411 206.144C238.443 206.176 238.467 206.232 238.483 206.312C238.515 206.664 238.523 207.032 238.507 207.416C238.507 207.784 238.483 208.136 238.435 208.472C238.419 208.568 238.379 208.632 238.315 208.664C238.267 208.696 238.195 208.704 238.099 208.688C237.987 208.656 237.859 208.632 237.715 208.616C237.571 208.6 237.419 208.592 237.259 208.592C236.875 208.592 236.483 208.68 236.083 208.856C235.699 209.016 235.323 209.248 234.955 209.552C234.603 209.856 234.275 210.216 233.971 210.632ZM247.209 218C247.113 218 247.041 217.968 246.993 217.904C246.961 217.84 246.929 217.76 246.897 217.664C246.881 217.536 246.841 217.264 246.777 216.848C246.729 216.432 246.697 216.056 246.681 215.72L246.585 214.784V210.008C246.585 209.24 246.433 208.696 246.129 208.376C245.825 208.056 245.289 207.896 244.521 207.896C243.145 207.896 242.465 208.376 242.481 209.336C242.481 209.512 242.401 209.6 242.241 209.6H240.489C240.313 209.6 240.217 209.448 240.201 209.144C240.121 208.184 240.481 207.416 241.281 206.84C242.081 206.264 243.185 205.976 244.593 205.976C246.049 205.976 247.121 206.304 247.809 206.96C248.513 207.616 248.865 208.624 248.865 209.984V215.072C248.865 215.616 248.873 216.112 248.889 216.56C248.921 216.992 248.961 217.376 249.009 217.712C249.041 217.904 248.961 218 248.769 218H247.209ZM242.601 218.288C241.673 218.288 240.961 218.008 240.465 217.448C239.969 216.872 239.721 216.048 239.721 214.976C239.721 214.144 239.881 213.472 240.201 212.96C240.537 212.432 241.065 212.024 241.785 211.736C242.521 211.432 243.497 211.232 244.713 211.136L246.945 210.944V212.552L244.737 212.744C243.697 212.84 242.977 213.04 242.577 213.344C242.177 213.632 241.977 214.12 241.977 214.808C241.977 215.32 242.081 215.712 242.289 215.984C242.513 216.24 242.841 216.368 243.273 216.368C243.785 216.368 244.313 216.192 244.857 215.84C245.417 215.488 246.137 214.856 247.017 213.944L247.065 215.768C246.521 216.36 246.009 216.84 245.529 217.208C245.049 217.576 244.569 217.848 244.089 218.024C243.625 218.2 243.129 218.288 242.601 218.288ZM255.49 218.288C254.37 218.288 253.514 217.92 252.922 217.184C252.33 216.448 252.034 215.352 252.034 213.896V210.8C252.034 209.248 252.41 208.056 253.162 207.224C253.93 206.392 254.994 205.976 256.354 205.976C256.962 205.976 257.602 206.056 258.274 206.216C258.962 206.376 259.49 206.584 259.858 206.84L259.978 208.76C259.482 208.488 258.946 208.288 258.37 208.16C257.794 208.016 257.282 207.944 256.834 207.944C255.986 207.944 255.354 208.208 254.938 208.736C254.522 209.248 254.314 210.016 254.314 211.04V213.872C254.314 214.672 254.466 215.28 254.77 215.696C255.09 216.096 255.562 216.296 256.186 216.296C256.57 216.296 256.946 216.224 257.314 216.08C257.698 215.92 258.106 215.672 258.538 215.336C258.986 214.984 259.498 214.52 260.074 213.944V215.888C259.546 216.416 259.042 216.864 258.562 217.232C258.082 217.584 257.594 217.848 257.098 218.024C256.602 218.2 256.066 218.288 255.49 218.288ZM260.218 218C260.138 218 260.074 217.984 260.026 217.952C259.978 217.904 259.946 217.832 259.93 217.736C259.898 217.496 259.858 217.192 259.81 216.824C259.762 216.456 259.746 216.152 259.762 215.912L259.618 214.784V201.872C259.618 201.696 259.698 201.608 259.858 201.608H261.634C261.81 201.608 261.898 201.696 261.898 201.872V215.24C261.898 215.48 261.898 215.76 261.898 216.08C261.914 216.384 261.93 216.68 261.946 216.968C261.978 217.256 262.01 217.488 262.042 217.664C262.09 217.888 262.01 218 261.802 218H260.218ZM272.193 218C272.097 218 272.025 217.968 271.977 217.904C271.945 217.84 271.913 217.76 271.881 217.664C271.865 217.536 271.825 217.264 271.761 216.848C271.713 216.432 271.681 216.056 271.665 215.72L271.569 214.784V210.008C271.569 209.24 271.417 208.696 271.113 208.376C270.809 208.056 270.273 207.896 269.505 207.896C268.129 207.896 267.449 208.376 267.465 209.336C267.465 209.512 267.385 209.6 267.225 209.6H265.473C265.297 209.6 265.201 209.448 265.185 209.144C265.105 208.184 265.465 207.416 266.265 206.84C267.065 206.264 268.169 205.976 269.577 205.976C271.033 205.976 272.105 206.304 272.793 206.96C273.497 207.616 273.849 208.624 273.849 209.984V215.072C273.849 215.616 273.857 216.112 273.873 216.56C273.905 216.992 273.945 217.376 273.993 217.712C274.025 217.904 273.945 218 273.753 218H272.193ZM267.585 218.288C266.657 218.288 265.945 218.008 265.449 217.448C264.953 216.872 264.705 216.048 264.705 214.976C264.705 214.144 264.865 213.472 265.185 212.96C265.521 212.432 266.049 212.024 266.769 211.736C267.505 211.432 268.481 211.232 269.697 211.136L271.929 210.944V212.552L269.721 212.744C268.681 212.84 267.961 213.04 267.561 213.344C267.161 213.632 266.961 214.12 266.961 214.808C266.961 215.32 267.065 215.712 267.273 215.984C267.497 216.24 267.825 216.368 268.257 216.368C268.769 216.368 269.297 216.192 269.841 215.84C270.401 215.488 271.121 214.856 272.001 213.944L272.049 215.768C271.505 216.36 270.993 216.84 270.513 217.208C270.033 217.576 269.553 217.848 269.073 218.024C268.609 218.2 268.113 218.288 267.585 218.288Z" fill="white"/>
</svg>
