<svg width="399" height="89" viewBox="0 0 399 89" fill="none" xmlns="http://www.w3.org/2000/svg">
<path d="M14 81.5833C13.0083 81.5833 12.1771 81.228 11.5062 80.5172C10.8354 79.8064 10.5 78.9257 10.5 77.875V57.5719C10.5 56.0267 11.0104 54.7134 12.0312 53.6318C13.0521 52.5502 14.2917 52.0094 15.75 52.0094H18.1125V35.1365C18.1125 33.5913 18.6229 32.278 19.6438 31.1964C20.6646 30.1148 21.9042 29.574 23.3625 29.574H39.375V23.6406C38.2083 22.7754 37.3188 21.8328 36.7063 20.813C36.0938 19.7932 35.7875 18.5726 35.7875 17.151C35.7875 16.224 35.9479 15.3432 36.2688 14.5089C36.5896 13.6745 37.0417 12.9483 37.625 12.3302L42 7.41667L46.375 12.3302C46.9583 12.9483 47.425 13.6745 47.775 14.5089C48.125 15.3432 48.3 16.224 48.3 17.151C48.3 18.5726 47.9792 19.7932 47.3375 20.813C46.6958 21.8328 45.7917 22.7754 44.625 23.6406V29.574H60.6375C62.0958 29.574 63.3354 30.1148 64.3563 31.1964C65.3771 32.278 65.8875 33.5913 65.8875 35.1365V52.0094H68.25C69.7083 52.0094 70.9479 52.5502 71.9688 53.6318C72.9896 54.7134 73.5 56.0267 73.5 57.5719V77.875C73.5 78.9257 73.1646 79.8064 72.4937 80.5172C71.8229 81.228 70.9917 81.5833 70 81.5833H14ZM23.3625 52.0094H60.6375V35.1365H23.3625V52.0094ZM15.75 76.0208H68.25V57.5719H15.75V76.0208Z" fill="black"/>
<rect width="110.247" height="4.24026" transform="matrix(0.707468 -0.706746 0.707468 0.706746 0 85.545)" fill="black"/>
<path d="M94.3603 52C94.2003 52 94.1203 51.912 94.1203 51.736V36.544C94.1203 36.368 94.2003 36.28 94.3603 36.28H97.3363C97.4803 36.28 97.5763 36.336 97.6243 36.448L101.944 45.208C102.248 45.784 102.512 46.312 102.736 46.792C102.976 47.272 103.184 47.728 103.36 48.16C103.552 48.592 103.728 49 103.888 49.384H103.936C103.936 49.064 103.928 48.72 103.912 48.352C103.912 47.984 103.904 47.616 103.888 47.248C103.888 46.88 103.888 46.512 103.888 46.144C103.888 45.776 103.888 45.432 103.888 45.112V36.544C103.888 36.368 103.968 36.28 104.128 36.28H105.88C106.056 36.28 106.144 36.368 106.144 36.544V51.736C106.144 51.912 106.056 52 105.88 52H102.976C102.832 52 102.728 51.944 102.664 51.832L98.4403 43.312C98.1843 42.8 97.9363 42.296 97.6963 41.8C97.4723 41.304 97.2483 40.816 97.0243 40.336C96.8003 39.856 96.5843 39.376 96.3763 38.896H96.3283C96.3283 39.312 96.3283 39.712 96.3283 40.096C96.3443 40.464 96.3523 40.84 96.3523 41.224C96.3683 41.592 96.3763 41.968 96.3763 42.352C96.3763 42.72 96.3763 43.104 96.3763 43.504V51.736C96.3763 51.912 96.2883 52 96.1123 52H94.3603ZM114.402 52.288C112.802 52.288 111.586 51.92 110.754 51.184C109.922 50.448 109.506 49.368 109.506 47.944V44.68C109.506 43.144 109.914 41.976 110.73 41.176C111.562 40.376 112.778 39.976 114.378 39.976C115.978 39.976 117.186 40.368 118.002 41.152C118.834 41.936 119.25 43.072 119.25 44.56V46.432C119.25 46.592 119.17 46.672 119.01 46.672H111.762V47.44C111.762 48.448 111.978 49.184 112.41 49.648C112.842 50.112 113.538 50.344 114.498 50.344C115.218 50.344 115.77 50.232 116.154 50.008C116.554 49.768 116.754 49.416 116.754 48.952C116.754 48.776 116.842 48.688 117.018 48.688H118.794C118.922 48.688 119.002 48.76 119.034 48.904C119.098 49.976 118.714 50.808 117.882 51.4C117.066 51.992 115.906 52.288 114.402 52.288ZM111.762 44.872H116.994V44.752C116.994 43.776 116.778 43.064 116.346 42.616C115.914 42.152 115.274 41.92 114.426 41.92C113.53 41.92 112.858 42.16 112.41 42.64C111.978 43.104 111.762 43.816 111.762 44.776V44.872ZM130.253 52C130.077 52 129.989 51.912 129.989 51.736V44.176C129.989 43.408 129.829 42.848 129.509 42.496C129.205 42.144 128.741 41.968 128.117 41.968C127.509 41.968 126.909 42.152 126.317 42.52C125.741 42.872 125.029 43.464 124.181 44.296V42.376C124.693 41.816 125.189 41.36 125.669 41.008C126.165 40.656 126.661 40.4 127.157 40.24C127.653 40.064 128.181 39.976 128.741 39.976C129.893 39.976 130.765 40.312 131.357 40.984C131.965 41.64 132.269 42.632 132.269 43.96V51.736C132.269 51.912 132.189 52 132.029 52H130.253ZM122.597 52C122.437 52 122.357 51.912 122.357 51.736V43.216C122.357 42.784 122.333 42.312 122.285 41.8C122.253 41.288 122.221 40.88 122.189 40.576C122.157 40.368 122.237 40.264 122.429 40.264H124.061C124.141 40.264 124.205 40.28 124.253 40.312C124.301 40.344 124.333 40.408 124.349 40.504C124.381 40.632 124.413 40.832 124.445 41.104C124.477 41.36 124.509 41.632 124.541 41.92C124.573 42.208 124.589 42.456 124.589 42.664L124.637 43.408V51.736C124.637 51.912 124.549 52 124.373 52H122.597ZM143.612 52C143.436 52 143.348 51.912 143.348 51.736V44.176C143.348 43.424 143.196 42.872 142.892 42.52C142.588 42.152 142.124 41.968 141.5 41.968C140.876 41.968 140.252 42.16 139.628 42.544C139.004 42.912 138.332 43.488 137.612 44.272L137.588 42.328C138.1 41.784 138.596 41.344 139.076 41.008C139.556 40.656 140.044 40.4 140.54 40.24C141.036 40.064 141.564 39.976 142.124 39.976C143.276 39.976 144.148 40.312 144.74 40.984C145.332 41.64 145.628 42.632 145.628 43.96V51.736C145.628 51.912 145.548 52 145.388 52H143.612ZM135.956 52C135.796 52 135.716 51.912 135.716 51.736V35.872C135.716 35.696 135.796 35.608 135.956 35.608H137.732C137.908 35.608 137.996 35.696 137.996 35.872V51.736C137.996 51.912 137.908 52 137.732 52H135.956ZM152.244 52.288C151.22 52.288 150.436 51.952 149.892 51.28C149.348 50.592 149.076 49.6 149.076 48.304V40.504C149.076 40.344 149.156 40.264 149.316 40.264H151.092C151.268 40.264 151.356 40.344 151.356 40.504V48.088C151.356 48.84 151.484 49.4 151.74 49.768C152.012 50.12 152.428 50.296 152.988 50.296C153.564 50.296 154.14 50.12 154.716 49.768C155.292 49.4 155.996 48.792 156.828 47.944V49.912C156.332 50.408 155.828 50.84 155.316 51.208C154.82 51.56 154.316 51.824 153.804 52C153.308 52.192 152.788 52.288 152.244 52.288ZM157.044 52C156.948 52 156.876 51.984 156.828 51.952C156.78 51.904 156.748 51.84 156.732 51.76C156.684 51.456 156.644 51.144 156.612 50.824C156.58 50.504 156.556 50.176 156.54 49.84L156.396 48.784V40.504C156.396 40.344 156.476 40.264 156.636 40.264H158.412C158.588 40.264 158.676 40.344 158.676 40.504V49.048C158.676 49.496 158.684 49.952 158.7 50.416C158.732 50.864 158.772 51.304 158.82 51.736C158.852 51.912 158.764 52 158.556 52H157.044ZM162.347 52C162.187 52 162.107 51.912 162.107 51.736V43.216C162.107 42.768 162.091 42.312 162.059 41.848C162.043 41.368 162.003 40.936 161.939 40.552C161.907 40.36 161.995 40.264 162.203 40.264H163.811C163.891 40.264 163.947 40.272 163.979 40.288C164.027 40.304 164.059 40.352 164.075 40.432C164.107 40.672 164.147 40.928 164.195 41.2C164.243 41.472 164.275 41.744 164.291 42.016C164.979 41.328 165.643 40.816 166.283 40.48C166.923 40.144 167.619 39.976 168.371 39.976C169.187 39.976 169.843 40.16 170.339 40.528C170.835 40.896 171.187 41.44 171.395 42.16C172.131 41.408 172.827 40.856 173.483 40.504C174.139 40.152 174.851 39.976 175.619 39.976C176.707 39.976 177.523 40.312 178.067 40.984C178.627 41.64 178.907 42.624 178.907 43.936V51.736C178.907 51.912 178.819 52 178.643 52H176.867C176.707 52 176.627 51.912 176.627 51.736V44.176C176.627 43.44 176.491 42.888 176.219 42.52C175.963 42.152 175.547 41.968 174.971 41.968C174.459 41.968 173.947 42.128 173.435 42.448C172.923 42.752 172.323 43.224 171.635 43.864V51.736C171.635 51.912 171.555 52 171.395 52H169.619C169.443 52 169.355 51.912 169.355 51.736V44.176C169.355 43.44 169.219 42.888 168.947 42.52C168.691 42.152 168.275 41.968 167.699 41.968C167.203 41.968 166.691 42.128 166.163 42.448C165.651 42.752 165.059 43.224 164.387 43.864V51.736C164.387 51.912 164.299 52 164.123 52H162.347ZM190.518 52.288C189.398 52.288 188.542 51.92 187.95 51.184C187.358 50.448 187.062 49.352 187.062 47.896V44.8C187.062 43.248 187.438 42.056 188.19 41.224C188.958 40.392 190.022 39.976 191.382 39.976C191.99 39.976 192.63 40.056 193.302 40.216C193.99 40.376 194.518 40.584 194.886 40.84L195.006 42.76C194.51 42.488 193.974 42.288 193.398 42.16C192.822 42.016 192.31 41.944 191.862 41.944C191.014 41.944 190.382 42.208 189.966 42.736C189.55 43.248 189.342 44.016 189.342 45.04V47.872C189.342 48.672 189.494 49.28 189.798 49.696C190.118 50.096 190.59 50.296 191.214 50.296C191.598 50.296 191.974 50.224 192.342 50.08C192.726 49.92 193.134 49.672 193.566 49.336C194.014 48.984 194.526 48.52 195.102 47.944V49.888C194.574 50.416 194.07 50.864 193.59 51.232C193.11 51.584 192.622 51.848 192.126 52.024C191.63 52.2 191.094 52.288 190.518 52.288ZM195.246 52C195.166 52 195.102 51.984 195.054 51.952C195.006 51.904 194.974 51.832 194.958 51.736C194.926 51.496 194.886 51.192 194.838 50.824C194.79 50.456 194.774 50.152 194.79 49.912L194.646 48.784V35.872C194.646 35.696 194.726 35.608 194.886 35.608H196.662C196.838 35.608 196.926 35.696 196.926 35.872V49.24C196.926 49.48 196.926 49.76 196.926 50.08C196.942 50.384 196.958 50.68 196.974 50.968C197.006 51.256 197.038 51.488 197.07 51.664C197.118 51.888 197.038 52 196.83 52H195.246ZM205.108 52.288C203.476 52.288 202.228 51.896 201.364 51.112C200.5 50.312 200.068 49.104 200.068 47.488V44.776C200.068 43.16 200.492 41.96 201.34 41.176C202.204 40.376 203.46 39.976 205.108 39.976C206.756 39.976 208.012 40.376 208.876 41.176C209.74 41.96 210.172 43.16 210.172 44.776V47.488C210.172 49.104 209.74 50.312 208.876 51.112C208.028 51.896 206.772 52.288 205.108 52.288ZM205.108 50.296C206.084 50.296 206.788 50.048 207.22 49.552C207.668 49.056 207.892 48.296 207.892 47.272V44.968C207.892 43.96 207.668 43.208 207.22 42.712C206.788 42.216 206.084 41.968 205.108 41.968C204.132 41.968 203.428 42.216 202.996 42.712C202.564 43.208 202.348 43.96 202.348 44.968V47.272C202.348 48.296 202.564 49.056 202.996 49.552C203.428 50.048 204.132 50.296 205.108 50.296ZM217.974 52.288C216.342 52.288 215.102 51.888 214.254 51.088C213.406 50.272 212.982 49.104 212.982 47.584V44.68C212.982 43.16 213.414 42 214.278 41.2C215.142 40.384 216.39 39.976 218.022 39.976C218.998 39.976 219.83 40.128 220.518 40.432C221.222 40.736 221.758 41.152 222.126 41.68C222.494 42.208 222.678 42.824 222.678 43.528C222.678 43.88 222.59 44.056 222.414 44.056H220.662C220.598 44.056 220.542 44.024 220.494 43.96C220.446 43.896 220.422 43.808 220.422 43.696C220.422 43.136 220.206 42.712 219.774 42.424C219.342 42.12 218.758 41.968 218.022 41.968C217.094 41.968 216.398 42.208 215.934 42.688C215.486 43.152 215.262 43.888 215.262 44.896V47.368C215.262 48.36 215.486 49.096 215.934 49.576C216.398 50.056 217.086 50.296 217.998 50.296C218.75 50.296 219.334 50.136 219.75 49.816C220.182 49.48 220.398 49.072 220.398 48.592C220.398 48.336 220.478 48.208 220.638 48.208H222.39C222.566 48.208 222.654 48.288 222.654 48.448C222.654 49.616 222.254 50.552 221.454 51.256C220.654 51.944 219.494 52.288 217.974 52.288ZM230.253 52.288C228.653 52.288 227.437 51.92 226.605 51.184C225.773 50.448 225.357 49.368 225.357 47.944V44.68C225.357 43.144 225.765 41.976 226.581 41.176C227.413 40.376 228.629 39.976 230.229 39.976C231.829 39.976 233.037 40.368 233.853 41.152C234.685 41.936 235.101 43.072 235.101 44.56V46.432C235.101 46.592 235.021 46.672 234.861 46.672H227.613V47.44C227.613 48.448 227.829 49.184 228.261 49.648C228.693 50.112 229.389 50.344 230.349 50.344C231.069 50.344 231.621 50.232 232.005 50.008C232.405 49.768 232.605 49.416 232.605 48.952C232.605 48.776 232.693 48.688 232.869 48.688H234.645C234.773 48.688 234.853 48.76 234.885 48.904C234.949 49.976 234.565 50.808 233.733 51.4C232.917 51.992 231.757 52.288 230.253 52.288ZM227.613 44.872H232.845V44.752C232.845 43.776 232.629 43.064 232.197 42.616C231.765 42.152 231.125 41.92 230.277 41.92C229.381 41.92 228.709 42.16 228.261 42.64C227.829 43.104 227.613 43.816 227.613 44.776V44.872ZM247.785 52.288C246.185 52.288 244.969 51.92 244.137 51.184C243.305 50.448 242.889 49.368 242.889 47.944V44.68C242.889 43.144 243.297 41.976 244.113 41.176C244.945 40.376 246.161 39.976 247.761 39.976C249.361 39.976 250.569 40.368 251.385 41.152C252.217 41.936 252.633 43.072 252.633 44.56V46.432C252.633 46.592 252.553 46.672 252.393 46.672H245.145V47.44C245.145 48.448 245.361 49.184 245.793 49.648C246.225 50.112 246.921 50.344 247.881 50.344C248.601 50.344 249.153 50.232 249.537 50.008C249.937 49.768 250.137 49.416 250.137 48.952C250.137 48.776 250.225 48.688 250.401 48.688H252.177C252.305 48.688 252.385 48.76 252.417 48.904C252.481 49.976 252.097 50.808 251.265 51.4C250.449 51.992 249.289 52.288 247.785 52.288ZM245.145 44.872H250.377V44.752C250.377 43.776 250.161 43.064 249.729 42.616C249.297 42.152 248.657 41.92 247.809 41.92C246.913 41.92 246.241 42.16 245.793 42.64C245.361 43.104 245.145 43.816 245.145 44.776V44.872ZM263.636 52C263.46 52 263.372 51.912 263.372 51.736V44.176C263.372 43.408 263.212 42.848 262.892 42.496C262.588 42.144 262.124 41.968 261.5 41.968C260.892 41.968 260.292 42.152 259.7 42.52C259.124 42.872 258.412 43.464 257.564 44.296V42.376C258.076 41.816 258.572 41.36 259.052 41.008C259.548 40.656 260.044 40.4 260.54 40.24C261.036 40.064 261.564 39.976 262.124 39.976C263.276 39.976 264.148 40.312 264.74 40.984C265.348 41.64 265.652 42.632 265.652 43.96V51.736C265.652 51.912 265.572 52 265.412 52H263.636ZM255.98 52C255.82 52 255.74 51.912 255.74 51.736V43.216C255.74 42.784 255.716 42.312 255.668 41.8C255.636 41.288 255.604 40.88 255.572 40.576C255.54 40.368 255.62 40.264 255.812 40.264H257.444C257.524 40.264 257.588 40.28 257.636 40.312C257.684 40.344 257.716 40.408 257.732 40.504C257.764 40.632 257.796 40.832 257.828 41.104C257.86 41.36 257.892 41.632 257.924 41.92C257.956 42.208 257.972 42.456 257.972 42.664L258.02 43.408V51.736C258.02 51.912 257.932 52 257.756 52H255.98ZM273.779 52.288C272.147 52.288 270.907 51.888 270.059 51.088C269.211 50.272 268.787 49.104 268.787 47.584V44.68C268.787 43.16 269.219 42 270.083 41.2C270.947 40.384 272.195 39.976 273.827 39.976C274.803 39.976 275.635 40.128 276.323 40.432C277.027 40.736 277.563 41.152 277.931 41.68C278.299 42.208 278.483 42.824 278.483 43.528C278.483 43.88 278.395 44.056 278.219 44.056H276.467C276.403 44.056 276.347 44.024 276.299 43.96C276.251 43.896 276.227 43.808 276.227 43.696C276.227 43.136 276.011 42.712 275.579 42.424C275.147 42.12 274.563 41.968 273.827 41.968C272.899 41.968 272.203 42.208 271.739 42.688C271.291 43.152 271.067 43.888 271.067 44.896V47.368C271.067 48.36 271.291 49.096 271.739 49.576C272.203 50.056 272.891 50.296 273.803 50.296C274.555 50.296 275.139 50.136 275.555 49.816C275.987 49.48 276.203 49.072 276.203 48.592C276.203 48.336 276.283 48.208 276.443 48.208H278.195C278.371 48.208 278.459 48.288 278.459 48.448C278.459 49.616 278.059 50.552 277.259 51.256C276.459 51.944 275.299 52.288 273.779 52.288ZM286.202 52.288C284.57 52.288 283.322 51.896 282.458 51.112C281.594 50.312 281.162 49.104 281.162 47.488V44.776C281.162 43.16 281.586 41.96 282.434 41.176C283.298 40.376 284.554 39.976 286.202 39.976C287.85 39.976 289.106 40.376 289.97 41.176C290.834 41.96 291.266 43.16 291.266 44.776V47.488C291.266 49.104 290.834 50.312 289.97 51.112C289.122 51.896 287.866 52.288 286.202 52.288ZM286.202 50.296C287.178 50.296 287.882 50.048 288.314 49.552C288.762 49.056 288.986 48.296 288.986 47.272V44.968C288.986 43.96 288.762 43.208 288.314 42.712C287.882 42.216 287.178 41.968 286.202 41.968C285.226 41.968 284.522 42.216 284.09 42.712C283.658 43.208 283.442 43.96 283.442 44.968V47.272C283.442 48.296 283.658 49.056 284.09 49.552C284.522 50.048 285.226 50.296 286.202 50.296ZM302.284 52C302.108 52 302.02 51.912 302.02 51.736V44.176C302.02 43.408 301.86 42.848 301.54 42.496C301.236 42.144 300.772 41.968 300.148 41.968C299.54 41.968 298.94 42.152 298.348 42.52C297.772 42.872 297.06 43.464 296.212 44.296V42.376C296.724 41.816 297.22 41.36 297.7 41.008C298.196 40.656 298.692 40.4 299.188 40.24C299.684 40.064 300.212 39.976 300.772 39.976C301.924 39.976 302.796 40.312 303.388 40.984C303.996 41.64 304.3 42.632 304.3 43.96V51.736C304.3 51.912 304.22 52 304.06 52H302.284ZM294.628 52C294.468 52 294.388 51.912 294.388 51.736V43.216C294.388 42.784 294.364 42.312 294.316 41.8C294.284 41.288 294.252 40.88 294.22 40.576C294.188 40.368 294.268 40.264 294.46 40.264H296.092C296.172 40.264 296.236 40.28 296.284 40.312C296.332 40.344 296.364 40.408 296.38 40.504C296.412 40.632 296.444 40.832 296.476 41.104C296.508 41.36 296.54 41.632 296.572 41.92C296.604 42.208 296.62 42.456 296.62 42.664L296.668 43.408V51.736C296.668 51.912 296.58 52 296.404 52H294.628ZM312.23 52.288C311.382 52.288 310.702 52.152 310.19 51.88C309.678 51.592 309.31 51.16 309.086 50.584C308.862 50.008 308.75 49.288 308.75 48.424V42.208H306.926C306.75 42.208 306.662 42.12 306.662 41.944V40.504C306.662 40.344 306.75 40.264 306.926 40.264H308.798L309.086 37.384C309.102 37.208 309.198 37.12 309.374 37.12H310.766C310.926 37.12 311.006 37.208 311.006 37.384L311.03 40.264H314.51C314.686 40.264 314.774 40.344 314.774 40.504V41.944C314.774 42.12 314.686 42.208 314.51 42.208H311.03V48.328C311.03 49.048 311.158 49.56 311.414 49.864C311.67 50.168 312.102 50.32 312.71 50.32C313.03 50.32 313.342 50.288 313.646 50.224C313.966 50.144 314.246 50.048 314.486 49.936C314.582 49.904 314.654 49.904 314.702 49.936C314.766 49.968 314.798 50.032 314.798 50.128V51.592C314.798 51.736 314.726 51.832 314.582 51.88C314.294 51.992 313.95 52.088 313.55 52.168C313.166 52.248 312.726 52.288 312.23 52.288ZM317.503 52C317.343 52 317.263 51.912 317.263 51.736V43.144C317.263 42.68 317.247 42.24 317.215 41.824C317.199 41.392 317.159 40.96 317.095 40.528C317.063 40.352 317.143 40.264 317.335 40.264H318.967C319.047 40.264 319.111 40.28 319.159 40.312C319.207 40.344 319.239 40.4 319.255 40.48C319.319 40.784 319.367 41.128 319.399 41.512C319.431 41.896 319.447 42.224 319.447 42.496L319.543 43.816V51.736C319.543 51.912 319.455 52 319.279 52H317.503ZM319.279 44.632L319.183 42.52C319.519 42.024 319.903 41.592 320.335 41.224C320.783 40.84 321.231 40.536 321.679 40.312C322.127 40.088 322.543 39.976 322.927 39.976C323.215 39.976 323.431 40 323.575 40.048C323.655 40.064 323.703 40.096 323.719 40.144C323.751 40.176 323.775 40.232 323.791 40.312C323.823 40.664 323.831 41.032 323.815 41.416C323.815 41.784 323.791 42.136 323.743 42.472C323.727 42.568 323.687 42.632 323.623 42.664C323.575 42.696 323.503 42.704 323.407 42.688C323.295 42.656 323.167 42.632 323.023 42.616C322.879 42.6 322.727 42.592 322.567 42.592C322.183 42.592 321.791 42.68 321.391 42.856C321.007 43.016 320.631 43.248 320.263 43.552C319.911 43.856 319.583 44.216 319.279 44.632ZM332.517 52C332.421 52 332.349 51.968 332.301 51.904C332.269 51.84 332.237 51.76 332.205 51.664C332.189 51.536 332.149 51.264 332.085 50.848C332.037 50.432 332.005 50.056 331.989 49.72L331.893 48.784V44.008C331.893 43.24 331.741 42.696 331.437 42.376C331.133 42.056 330.597 41.896 329.829 41.896C328.453 41.896 327.773 42.376 327.789 43.336C327.789 43.512 327.709 43.6 327.549 43.6H325.797C325.621 43.6 325.525 43.448 325.509 43.144C325.429 42.184 325.789 41.416 326.589 40.84C327.389 40.264 328.493 39.976 329.901 39.976C331.357 39.976 332.429 40.304 333.117 40.96C333.821 41.616 334.173 42.624 334.173 43.984V49.072C334.173 49.616 334.181 50.112 334.197 50.56C334.229 50.992 334.269 51.376 334.317 51.712C334.349 51.904 334.269 52 334.077 52H332.517ZM327.909 52.288C326.981 52.288 326.269 52.008 325.773 51.448C325.277 50.872 325.029 50.048 325.029 48.976C325.029 48.144 325.189 47.472 325.509 46.96C325.845 46.432 326.373 46.024 327.093 45.736C327.829 45.432 328.805 45.232 330.021 45.136L332.253 44.944V46.552L330.045 46.744C329.005 46.84 328.285 47.04 327.885 47.344C327.485 47.632 327.285 48.12 327.285 48.808C327.285 49.32 327.389 49.712 327.597 49.984C327.821 50.24 328.149 50.368 328.581 50.368C329.093 50.368 329.621 50.192 330.165 49.84C330.725 49.488 331.445 48.856 332.325 47.944L332.373 49.768C331.829 50.36 331.317 50.84 330.837 51.208C330.357 51.576 329.877 51.848 329.397 52.024C328.933 52.2 328.437 52.288 327.909 52.288ZM340.799 52.288C339.679 52.288 338.823 51.92 338.231 51.184C337.639 50.448 337.343 49.352 337.343 47.896V44.8C337.343 43.248 337.719 42.056 338.471 41.224C339.239 40.392 340.303 39.976 341.663 39.976C342.271 39.976 342.911 40.056 343.583 40.216C344.271 40.376 344.799 40.584 345.167 40.84L345.287 42.76C344.791 42.488 344.255 42.288 343.679 42.16C343.103 42.016 342.591 41.944 342.143 41.944C341.295 41.944 340.663 42.208 340.247 42.736C339.831 43.248 339.623 44.016 339.623 45.04V47.872C339.623 48.672 339.775 49.28 340.079 49.696C340.399 50.096 340.871 50.296 341.495 50.296C341.879 50.296 342.255 50.224 342.623 50.08C343.007 49.92 343.415 49.672 343.847 49.336C344.295 48.984 344.807 48.52 345.383 47.944V49.888C344.855 50.416 344.351 50.864 343.871 51.232C343.391 51.584 342.903 51.848 342.407 52.024C341.911 52.2 341.375 52.288 340.799 52.288ZM345.527 52C345.447 52 345.383 51.984 345.335 51.952C345.287 51.904 345.255 51.832 345.239 51.736C345.207 51.496 345.167 51.192 345.119 50.824C345.071 50.456 345.055 50.152 345.071 49.912L344.927 48.784V35.872C344.927 35.696 345.007 35.608 345.167 35.608H346.943C347.119 35.608 347.207 35.696 347.207 35.872V49.24C347.207 49.48 347.207 49.76 347.207 50.08C347.223 50.384 347.239 50.68 347.255 50.968C347.287 51.256 347.319 51.488 347.351 51.664C347.399 51.888 347.319 52 347.111 52H345.527ZM355.39 52.288C353.758 52.288 352.51 51.896 351.646 51.112C350.782 50.312 350.35 49.104 350.35 47.488V44.776C350.35 43.16 350.774 41.96 351.622 41.176C352.486 40.376 353.742 39.976 355.39 39.976C357.038 39.976 358.294 40.376 359.158 41.176C360.022 41.96 360.454 43.16 360.454 44.776V47.488C360.454 49.104 360.022 50.312 359.158 51.112C358.31 51.896 357.054 52.288 355.39 52.288ZM355.39 50.296C356.366 50.296 357.07 50.048 357.502 49.552C357.95 49.056 358.174 48.296 358.174 47.272V44.968C358.174 43.96 357.95 43.208 357.502 42.712C357.07 42.216 356.366 41.968 355.39 41.968C354.414 41.968 353.71 42.216 353.278 42.712C352.846 43.208 352.63 43.96 352.63 44.968V47.272C352.63 48.296 352.846 49.056 353.278 49.552C353.71 50.048 354.414 50.296 355.39 50.296Z" fill="black"/>
<path d="M385.352 36.4832C385.352 36.3072 385.44 36.2192 385.616 36.2192H386.96C387.136 36.2192 387.224 36.3072 387.224 36.4832V45.9872C387.224 46.1632 387.136 46.2512 386.96 46.2512H385.616C385.44 46.2512 385.352 46.1632 385.352 45.9872V36.4832ZM381.224 36.4832C381.224 36.3072 381.304 36.2192 381.464 36.2192H382.832C382.992 36.2192 383.072 36.3072 383.072 36.4832V45.9872C383.072 46.1632 382.992 46.2512 382.832 46.2512H381.464C381.304 46.2512 381.224 46.1632 381.224 45.9872V36.4832ZM373.496 52.4578C373.96 51.8818 374.416 51.4258 374.864 51.0898C375.296 50.7538 375.792 50.5138 376.352 50.3698C376.896 50.2258 377.544 50.1538 378.296 50.1538H389.024C389.808 50.1538 390.456 50.2338 390.968 50.3938C391.496 50.5538 391.976 50.8018 392.408 51.1378C392.856 51.4898 393.336 51.9298 393.848 52.4578C393.896 52.5058 393.92 52.5618 393.92 52.6258C393.92 52.7058 393.896 52.7778 393.848 52.8418L392.768 53.9218C392.72 53.9858 392.664 54.0178 392.6 54.0178C392.536 54.0178 392.472 53.9858 392.408 53.9218C392.04 53.5538 391.704 53.2498 391.4 53.0098C391.096 52.7858 390.76 52.6258 390.392 52.5298C390.024 52.4338 389.552 52.3858 388.976 52.3858H378.344C377.784 52.3858 377.328 52.4418 376.976 52.5538C376.608 52.6658 376.28 52.8338 375.992 53.0578C375.688 53.2978 375.336 53.5858 374.936 53.9218C374.872 53.9698 374.808 53.9938 374.744 53.9938C374.68 54.0098 374.624 53.9858 374.576 53.9218L373.496 52.8418C373.432 52.7778 373.408 52.7138 373.424 52.6498C373.424 52.5858 373.448 52.5218 373.496 52.4578Z" fill="black"/>
</svg>
